<?xml version="1.0" standalone="no"?>
<!DOCTYPE svg PUBLIC "-//W3C//DTD SVG 20010904//EN"
 "http://www.w3.org/TR/2001/REC-SVG-20010904/DTD/svg10.dtd">
<svg version="1.0" xmlns="http://www.w3.org/2000/svg"
 width="192.000000pt" height="48.000000pt" viewBox="0 0 192.000000 48.000000"
 preserveAspectRatio="xMidYMid meet">

<g transform="translate(0.000000,48.000000) scale(0.100000,-0.100000)"
fill="#000000" stroke="none">
<path d="M178 467 c-61 -18 -92 -39 -128 -88 -77 -107 -39 -262 80 -329 39
-22 57 -25 140 -25 77 1 103 5 135 22 81 43 125 112 125 198 0 97 -37 158
-123 202 -60 30 -161 39 -229 20z m151 -35 c48 -24 69 -57 83 -129 15 -84 -2
-162 -46 -211 -28 -30 -40 -36 -87 -40 -65 -5 -101 18 -130 82 -26 57 -25 176
1 233 33 75 108 102 179 65z"/>
<path d="M1305 470 c-88 -3 -150 -8 -137 -12 22 -6 22 -7 22 -207 0 -200 0
-202 -22 -211 -15 -6 38 -8 152 -7 l175 2 3 44 3 44 -36 -31 c-32 -29 -42 -32
-100 -32 l-65 0 0 85 0 85 52 0 c34 0 58 -6 70 -17 25 -22 31 -12 23 36 -6 39
-8 40 -28 26 -12 -8 -43 -15 -69 -15 l-48 0 0 90 0 90 61 0 c46 0 68 -5 90
-21 l29 -20 0 35 c0 19 -3 36 -7 38 -5 2 -80 1 -168 -2z"/>
<path d="M1645 466 c-42 -18 -65 -57 -65 -109 0 -56 20 -82 107 -137 119 -76
138 -106 91 -150 -35 -32 -99 -27 -143 11 -19 17 -38 42 -41 56 -9 34 -24 10
-24 -39 0 -49 32 -70 112 -76 113 -8 198 48 198 132 0 56 -23 85 -109 136 -86
51 -111 75 -111 105 0 29 34 55 73 55 32 0 87 -26 87 -41 0 -6 5 -7 10 -4 6 3
10 19 10 34 0 27 -2 28 -61 35 -84 8 -99 7 -134 -8z"/>
<path d="M618 285 c2 -103 1 -197 -2 -211 -4 -14 -17 -29 -29 -34 -15 -6 10
-9 78 -9 55 1 93 3 85 6 -8 3 -18 11 -22 17 -10 15 -10 246 0 246 4 0 76 -61
161 -135 84 -74 157 -135 160 -135 4 0 5 81 3 179 -5 211 -1 248 31 254 12 2
-25 4 -83 4 -58 0 -95 -2 -83 -4 30 -6 34 -27 31 -161 l-3 -113 -160 141 c-88
77 -162 140 -165 140 -3 0 -3 -83 -2 -185z"/>
</g>
</svg>
